<?xml version="1.0" encoding="UTF-8"?>
<svg id="Layer_1" xmlns="http://www.w3.org/2000/svg" width="457.9mm" height="344.3mm" version="1.1" viewBox="0 0 1298 976">
  <!-- Generator: Adobe Illustrator 29.1.0, SVG Export Plug-In . SVG Version: 2.1.0 Build 142)  -->
  <defs>
    <style>
      .st0 {
        fill: #76bc43;
      }

      .st1 {
        fill: #314055;
      }

      .st2 {
        fill: #0f2541;
      }

      .st3 {
        fill: #677586;
      }

      .st4 {
        fill: #568d41;
      }

      .st5 {
        fill: #0d233f;
      }

      .st6 {
        fill: #f4f5f6;
      }

      .st7 {
        fill: #ccd0d6;
      }

      .st8 {
        fill: #666d78;
      }

      .st9 {
        fill: #579042;
      }

      .st10 {
        fill: #102641;
      }

      .st11 {
        fill: #c9a877;
      }

      .st12 {
        fill: #c2c7ce;
      }

      .st13 {
        fill: #5d90be;
      }

      .st14 {
        fill: #c3c8cf;
      }

      .st15 {
        fill: #eceef0;
      }

      .st16 {
        fill: #454b4f;
      }

      .st17 {
        fill: #8b7c64;
      }

      .st18 {
        fill: #e7e9eb;
      }

      .st19 {
        fill: #938266;
      }

      .st20 {
        fill: #76bd43;
      }

      .st21 {
        fill: #0f2540;
      }

      .st22 {
        fill: #77bd43;
      }

      .st23 {
        fill: #6fa8db;
      }

      .st24 {
        fill: #caa877;
      }

      .st25 {
        fill: #4c5868;
      }

      .st26 {
        fill: #fafcfa;
      }

      .st27 {
        fill: #f6f9f5;
      }

      .st28 {
        fill: #70a8db;
      }

      .st29 {
        fill: #525e6c;
      }

      .st30 {
        fill: #646059;
      }

      .st31 {
        fill: #515353;
      }

      .st32 {
        fill: #9a9999;
      }

      .st33 {
        fill: #caa876;
      }

      .st34 {
        fill: #30435b;
      }

      .st35 {
        fill: #6d7a8b;
      }

      .st36 {
        fill: #f1f2f4;
      }

      .st37 {
        fill: #0e243f;
      }

      .st38 {
        fill: #0f243f;
      }

      .st39 {
        fill: #59687b;
      }

      .st40 {
        fill: #fefefe;
      }

      .st41 {
        fill: #e8eaec;
      }

      .st42 {
        fill: #786e5e;
      }

      .st43 {
        fill: #939da9;
      }

      .st44 {
        fill: #627082;
      }

      .st45 {
        fill: #0e2440;
      }

      .st46 {
        fill: #122742;
      }

      .st47 {
        fill: #32455d;
      }

      .st48 {
        fill: #48525d;
      }

      .st49 {
        fill: #2b3f57;
      }

      .st50 {
        fill: #4a5a6f;
      }

      .st51 {
        fill: #787c83;
      }

      .st52 {
        fill: #45566b;
      }

      .st53 {
        fill: #3f4d5f;
      }

      .st54 {
        fill: #f0f1f3;
      }

      .st55 {
        fill: #838e9c;
      }

      .st56 {
        fill: #958367;
      }

      .st57 {
        fill: #304055;
      }

      .st58 {
        fill: #234061;
      }

      .st59 {
        fill: #505b6a;
      }

      .st60 {
        fill: #1e334d;
      }

      .st61 {
        fill: #182d48;
      }

      .st62 {
        fill: #f9bca0;
      }

      .st63 {
        fill: #777c83;
      }

      .st64 {
        fill: #354458;
      }

      .st65 {
        fill: #a79d90;
      }

      .st66 {
        fill: #72b643;
      }

      .st67 {
        fill: #c9ced4;
      }

      .st68 {
        fill: #132741;
      }

      .st69 {
        fill: #bcc3ca;
      }

      .st70 {
        fill: #fdfdfd;
      }
    </style>
  </defs>
  <g id="_x36_GrQpI.tif">
    <g>
      <path class="st5" d="M265,443.3c-24-5.9-50.4-10.2-73.9-17.7-66.1-21-41.3-151.7,30.1-142.6l96.9,25.3c-2.8-42.3-20.9-80.7-42.9-116l48.7-33.3v-2.1s-13.9-24-13.9-24c53.9-34.7,113.3-61.6,175.5-78.2,153.7-41,323.5-22.3,463.5,52.9,9.2,5,32.4,16.9,39.1,23.3,1.1,1.1,2.7,1.6,1.7,3.5-1.8,3.4-13.4,21.9-12.8,23.9l47.9,34.1c.4,1.6-12.4,21.5-14.4,25.2-18.2,34-32.1,72.4-27.4,111.7,5.7,47.5,39.2,92.6,61.5,133.8,2.5,4.6,10.4,23.1,12.6,25.3s5.7-.8,8.7-1.6c17.5-4.4,37.8-3.7,46.2,15.2,6.9,15.3,0,25.4-2.1,40.2-6.4,45.8,32.8,83.3,30.5,131.8-3.2,69.5-107.5,80.4-150,40.6-6,3.9-18.9,3.9-23.9,6.5s-18.5,27.2-21.7,31.5c-60.2,82.2-150.4,146.1-247.6,176.9-15.5,4.9-39.7,13.4-55.2,10.7-15.6-2.8-34.3-8.8-49.4-14-72.6-24.9-140-67.8-193.5-122.6-98.7,5.2-220.4-48.4-240.4-154.4-13.7-72.5,11.5-137.3,69.4-181.7l36.7-24.1Z"/>
      <path class="st10" d="M989.2,751.1c9.1-1.9,7.9,3.3,10.2,10.2,5.6-5.2.4-12.5,11.2-10.2v18.4c-6.6.8-3.4-7.8-4.1-12.3l-5.1,11.8c-4.8,3-5.9-9.1-7.2-11.8-1.8-.2-1,2.3-1,3.6-.1,2.9,0,5.8,0,8.7-1.1.4-4.1-.4-4.1-1.5v-16.9Z"/>
      <path class="st61" d="M987.2,751.1c1.7,5.5-6.1,3.6-6.1,4.1v14.3c-7.4,1.7-2.6-12.8-4.1-14.3s-6.4,1.1-5.1-4.1h15.3Z"/>
      <path class="st40" d="M481.8,580.3c2.3-5.3,5.9-11.6,10.2-15.3-4.9,21.3-11.8,43-13.3,65-.3,4.5-.9,26.8,2,28.7,5.8,3.9,16.3-11.5,19.3-15.6,5.7-7.8,19.4-28.9,21.9-37.4,1.4-4.8,1.1-11.1,2.1-16.3,3.1-15.9,10.1-50.9,29.9-53,7.3-.8,28.3,1,26.9,11.5-8.2,18.6-17,37.4-20.1,57.7-2.6,17-4.4,42.9,9,55.6-5-11.3-7.8-23.4-5.1-35.8l4.6,21.5c4.2,14.3,15.5,9.9,20.9-.7,2.3-4.6.2-5.9.1-10-.5-31.9,6.3-70.5,31.2-92.6,17.1-15.1,44.2-21.8,65.2-10.9,3,1.5,9.1,7.7,9.7,7.9,2.4.5,5.4-.3,8,0,11.5,1.5,33.4,3.4,33.1,18.8-.1,6.5-6.1,23.1-7.8,31.1-7.3,35.4-11.6,71.6-14.6,107.6,29.9,1.2,59.5,9.4,86.9,21,9.1,3.8,29.8,12.7,36.8,18.4,9.7,7.9,1.2,23-6.6,29.1-26.8,20.9-46.1-12.4-71.1-18.4,6.1,5.8,13.1,11.4,17.6,18.7.9,1.5,3.2,5.1,2.4,6.8-18.3-18.9-42.6-31.5-68-37.8-.8,14.5-2.1,29.8-7.1,43.5s-1.4,5.1-3.1,5.6v-19.4l-8.6,20.5c-19.9,39-53.8,59.1-98.1,55.1-51.2-4.7-73.9-61.1-38.5-98.6.7-.8,11.3-10.6,10.2-7.1l-11.2,16.4c-.2.8,1.1.7,1.5.5,1.8-.8,7.8-8.1,10.3-10.2,25.7-21.6,62.7-35.5,95.4-41.6,2.4-.5,12.9-1.4,13.6-1.8,2.6-1.8,2.8-27.5,3-32.3l-5.1,8.7c-22.4,19.6-58.5,17.3-75.2-8.7-21.8,25.2-58.4,28.6-72.9-5.9-.6-1.4-2.9-11.5-4.3-10.5-15.6,31.2-67.5,64.5-82.4,13.3-7.9-27.1-2.7-59.7,2.5-86.9-7.2,4-15.2,6.4-23.1,9.1-.5,22.7-2.5,47-13.6,67.2s-7.1,11.2-7.9,11.6c-1.7.8-1.7-.6-1.1-2.1,3.6-8.8,5.3-12.8,6.7-22.4.3-5.1,0-6.2-1-3.1-8.9,37.7-38.1,65.3-79,57-49.2-10-62.6-101.3-8-113.2-15.5-17.9-8.8-37.8,12-46.8,30.7-13.4,74.1-2.6,86.8,30.5,7.5-3.1,15.3-6.4,22.3-10.5,13.3-7.7,18.3-16.8,35-18.2s18.1-.8,22.3.2c13.7,3.1-6.7,25.6-9.7,31.8s-2.7,8.2-3.9,13c.4,1.5,0,3.1-1,4.1-.5,1.7-.1,1.7,1,0-.4-1.4,0-3.2,1-4.1Z"/>
      <path class="st22" d="M603.6,82.2c0-4-1-27,1.7-27.7,24.1-1.3,48.3-1,72.5-1,12.7,2.3,27.3.9,39.9,3.1s2.4,8.8,3.6,12.3l4.1-11.2c62.3,7.9,123.7,24.7,180.7,50.9,10.3,4.8,30,13.4,38.6,19.7s-.5,7.3.6,11.1c2.5-.8,5.1-6.2,7.6-6.2s10.6,6,10.6,6.6l-43.3,76.3c-2.1-1.3-7.6-3.2-7.7-5.6l7.1-26.1c-4,2.1-14.5,21.9-17.7,21.3-25.8-14.7-53-26.6-81-36.7-5.6-2-19.5-5-23.3-7.3s-5.4-15.1-14.3-12.9-5.7,4.5-8,5.4c-4.2,1.5-25.2-4.2-31.5-5.3-27-4.5-54.1-7.3-81.3-8.5l-4.3-12.3-4.2,12.3-56,3.1-8.8-23.6v23c-.4.7-1,1.1-1.7,1.3-6.2,2-18,2.3-25.1,3.6s-16.6,4.2-22.9,4.7c-6.2.5-14.3-1.5-21.4-1s-8.7.8-10.8,1.5c-4.6,1.5-3.5,7.3-5.7,8.8-4.2,2.8-21.9,7-28.2,9.4-27,10.1-53.4,21.7-78.1,36.5h-1.4c-.2-2.4-8.1-10.7-10.3-9.1,2,7.6,7.2,14.9-3.5,17.3l-42.4-76c.8-4.2,59.7-32.9,67.9-36.3l11.7,17.3-3.8-20,.7-.9c57.3-23.8,118.2-38.5,180.1-44.5,2.5,10.9,4.7,21.8,7.2,32.7,1.3-.5,2-2.6,2-6.1Z"/>
      <path class="st40" d="M847,545.5c-.9-2.9-2-5.1-4.1-7.4s-5.5-3.6-7.2-5.9c7.7.4,16.2,7.5,20.9,13.4,2.4,2.9,5.5,10.4,7,11.9,4.4,4.4,13.8,2.1,13,13.9-.7,10.3-5.5,24.8-6.9,36.1s-5.3,46.1,2.3,51.6c10.3,7.4,24.2-21.5,26.9-28.4,3.5-8.7,11.8-39.6,10.4-47.8-.4-2.7-7.2-10.8-9-15.6-8.6-24.4,2-56.1,32-43.3,15.1,6.5,13,27,8.7,39.9,14.7-.7,36-30.1,48.4-29.3,5.8.3,16.1,9.7,18.9,14.7,5.3,9.6,3.2,17.5-4.4,24.9-1.7-2.6,2.7-8.3-.5-10.2-9.7,21.6-22.1,43.4-20.5,68.1s2.7,20.7,10.7,19.9c13-1.3,31.9-43.2,35.4-55.2l-11.8,12.3c-1.4.3-1.9,0-1.5-1.5.8-2.5,5.7-9.1,7.3-12.1,7.8-14.8,14.7-30.3,20.3-46.2,2.6-7.3,5.4-24,9.7-29.2,4.2-5,22.1-11.7,28.6-11.8,14.9,0,7.6,12.8,6.1,20.9-3.9,21.4-4.3,38.9,2.9,59.6,12.2,35.4,53.2,101.4-3.8,118.4-2.2-1.7.1-1.7.8-2.4,1.2-1.1,10.4-8.5,8.9-9.9-3.1,1-5.5,2.9-8.7,4.1-26.6,10.3-70.7,3.4-68.1-32.8-14.6,16.8-41.2,30.5-61.7,15.2s-15-21.9-15-31v-24c3-.5,1.7.6,2.2,2.4,2,6.9,2.1,14.9,8,20.1-6.4-18.6-3.6-37.1-2-56.3l-15.3,1c-2.2,27.5-9.9,58.5-28.1,79.8s-9.3,9.8-10.3,10.2-1.7.3-1.5-.5c.3-1,6.6-8.9,2.6-7.7s-10.2,7-15.6,9c-24.6,8.7-41.9-.6-50.9-24.3-14.6,21.4-37.1,35.1-62.9,23-25.6-12-23.2-42.5-18.4-66-4.6,5.2-5.3,13.8-6.1,20.5-.4,2.3-1.1,3-2,2-1.1-35.7,13.1-90.1,48.4-106.6,19-8.9,45.2-4.4,54.9,15.5,1,.5,1.3-.5,1-3.1Z"/>
      <path class="st40" d="M349.9,734.8c45.6,7.8,94.4,4.2,136.1-16.9l14.3-8.7c-4,11.3-13.2,20.9-22.6,28-61.3,46.4-175.9,37.1-235.1-9.2-47.6-37.2-65.7-94.5-48.2-152.8-4,3.2-5,9.3-7.2,13.8l-9.2,32.2c-2.8-41.4,12.6-82.3,40.4-112.5,49.7-54.1,158.7-91.6,230.7-75.2,19,4.3,38.1,12.7,44.5,32.2s6.1,19.6,2.4,24.9-24.6,14.2-31.3,18.8c-11.4,7.9-16.7,21.3-32.3,18.4-9.9-1.8-18.3-18.2-20.2-27.4-2.6-.4-2.1.4-2,2.5.3,6.9,4.6,13.2,4.6,20-12.5-14.9-31-32.9-4-44.9l13.7-5.2c-70.8-2.6-162.5,39.3-183.4,111.7-12,41.6-4.8,79.6,29.5,107.1,36.8,29.6,87.3,37.4,133.5,35.8l-11.2,3.6c-13.8,3.1-27.9,2.6-42,2.5-1.8.1-4.5,0-6.1-1-1.1.2-1.1.5,0,1,1.8-.6,4.1-.7,5.1,1Z"/>
      <path class="st24" d="M550.4,344c-7.1,1.2-12.6,4.3-17.9,9.2-1.8,1.7-5.2,8.7-6.5,4.5s-.4-17.5-.1-21.3c.6-8.7,4.5-29.5,9.8-36.3,3.9-5,12.5-8.3,13.8-15.9-3.3.3-11.1,6.2-14.1,4.4-22.4-26.8-29.1-65.2-22.2-99.1.8-4.2,4.1-18.6,8.2-19.4,9.6-1.8,35.1,4.9,45.3,7.9,5,1.5,36.2,12.8,37,16.2s-6.3,9.3-5,12.7c3.9-1.3,7-4.2,10.9-6,26.3-12.3,58-10.7,84.2.9,1.5-1.4-8.8-13.7-10.2-15.3-.7-1.2.4-1.6,3.1-1,39.5,6.7,84.5,31.2,95.1,72.6l-2.3.6c-10.1-7.9-12.2-8-6.3-.3,3.8,8.8,4.3,11.7-5.2,15.8-10.8,9.2-21.2,18.9-31.2,28.9-5.2,0-1.3-7.5.1-10.6,4.1-8.7,10.8-17.1,17.3-24.2-14.5-.4-17.7,3.2-23,15.4-3.2,7.3-6.4,16-5.7,24.1s1.9,3.6,1.7,4.6c-.9,4.1-11.2,5.2-10.8,11.2,25.8-7.7,50.7,11.4,64.4,31.7-14.5-.5-28.1,7.1-41.7,9.9-26.7,5.5-58.7-16.3-86.6-15.8-9.9.2-12.7,6.8-18.9,13.1-1.2.7-1.6-.4-1-3.1.8-4.2,1.3-7.3,3.1-11.2-15.9,4.7-29.5,17.4-35.8,32.7-1.7.3-1.1-2.5-1-3.6.4-4.4,3.1-8.4,2.6-12.8-6.3,3.1-13,11.7-14.8,18.4l-3-.5c-6.4-7.5-15.4-11.7-24.6-14.9-3.6-2.9.9-6,4.2-6.2-5.5-3.7-11.7-8.9-11.2-16.2l-1.2-1.1Z"/>
      <path class="st28" d="M936,407.4h-16.9c-1.2,0-5.8-11.1-5.6-13.3.3-.4,6.9,5.6,8.7,6.1s1.9-.2,1.5-1.5c-.9-2.8-4.9-8.6-6.3-12.1-5.9-14.4-10.3-29.6-14.1-44.7-1.6.2-1.6,1.5-1.9,2.6-4.5,14.4-5.7,31.2-15.4,43.9-.2,2.7.4,1,1.8.8,2.3-.5,4.3-1.1,6.4-2.3-1,2.3-4.5,15.7-5.1,16.4-1.6,1.6-1.8-.7-2.3-1.3-3.2-4.6-12.6-21.1-13.9-26s-.7-2.4.3-2.4l8.7,2.6c-6.9-10-10.8-21.7-14.3-33.2l10.7,6.1c.7.2.7-.8.5-1.5-1.6-5.1-5.8-12.1-7.9-17.7-4.1-10.7-7.3-21.8-11.5-32.5.8-1.6,1.8,0,2.6.5,16.2,12.2,7.9,2.9,3.8-7.9-8.6-22.3-14-46.2-17.6-69.8l-5.6,28.6c-3.7,15-8.2,30-15.9,43.5,2.4,1.9,10.6-6.4,11.2-5.6l-17.4,47.6c-1.3,4.4,9.1-3.3,9.7-4.6.2,8.9-3.7,19.4-6.9,27.9-2.6,6.9-6.1,14.6-10,20.7-.2,2.6.4,1.1,1.8.7,3.5-1,6.7-3,10-4.3,1.4,2.4-3.5,12.6-5.3,13.2-2.6.8-12.4-2.9-16.7,0,.2-7.6,1.8-15.3,1-23-.4-3.7-2.8-7.8-2.9-10.2-.6-12.8,10-25,9.1-39-.3-4.4-1.7-10-3.1-14.3s-5.6-11.2-6-13.5,3-8.9,2.9-13c0-9.4-7.8-23.7-7.8-28.7s4.5-11.9,5.2-14.8c3.7-15.4,4.1-31.4,2.1-47.1,43.1,13.7,84.4,32.9,121.8,58.3.9,1.6-5.3,21.5-6.2,25.5-7.2,33.7-6.4,67.2,2.9,100.5s9.5,25.7,14,38.6Z"/>
      <path class="st24" d="M599.5,530.2c-4.1-8.6-12.6-12.6-21.5-14.8-21.5-5.5-42.8-4-56.8,14.8-3.9-6.2-8.4-13.2-15.9-15.3,8.1-7.5,15.4-15.3,16.4-27.1.7-9.6-5.8-32.9-10.4-41.8-9-17.5-32-28.3-50-33.9,17.6-6.9,38.4-10.7,57.3-7.7-2.4-5.3-7.5-8.5-11.2-12.8,48.7,1.9,92.5,49.4,110.6,91.9,2.4,5.7,8.6,21.5,8.8,27s0,1.2-.8,1.8c-2.1,1.9-10.1,5.3-13.7,7.9-4.1,2.9-7.9,6.5-11.5,10h-1.5Z"/>
      <path class="st28" d="M411.2,256.1c-1.5,18.9-6.2,39.1-15.3,55.8,1.6,2,6.2-2.5,7.1-1.5-.4,2.5-5.4,17.8-6.2,18.3s-10-2-10.2-2.6c1.4-28.4-3.6-56.3-11.8-83.3,37.4-24,77.6-44.3,120.3-57.2-7.1,38.8-4.5,82.2,22.5,113-6.5,18.9-10.8,38.7-10.2,58.9-1.9,0-6-.2-7.2-1.7-3-3.7-9.2-20.9-11.2-26.4s-.6-3.5-1-4.6c-1.2-1.4-.7-2,1-1,2.5,1.7,5.6,2.8,7.7,5.1.2-6-5.2-12.8-7.9-18.7s-3.5-10.2-6-15l10.7,8.2c1.9.6-5.9-16.7-6.4-18.2-2.4-6.6-4.3-13.3-6.7-19.9l-11.5-46.8c-4,23.8-8.5,49.1-23,69,4,1.4,7.6-3.3,11.3-4.1-4.5,13.1-9.1,26.6-17.4,37.9-.2,2.6.4,1.1,1.8.7,4.5-1.2,8.6-3.9,12.5-6.4.8,1.1-8,24.4-9.2,25.1-2.2,1.4-12.6-1.5-14.1-4.4-4.3-8.1-6-21.7-9.4-30.4,1.1-1.7,10.6,5.6,9.2,1s-4-7.1-5.3-10.1c-5.7-13.4-9.1-26.4-12.1-40.6-1.2.2-1.9-4.4-1.8-4.6s1.5,4.9-.2,4.6Z"/>
      <path class="st40" d="M610.7,416.7c3.2-18.3,11.9-40.4,33.6-40.8,6.5,22.9,27,37.6,50.2,39.8.6-.5-5-12.8-2.6-15.3,7,3.1,14.5,7.4,20.5,12.3s10.7,7.6,5.6,14.8-7.5,6.9-15.4,5.1c-18.7-4.2-29.8-20.2-49.6-22-9.3-.8-24.5-1-27.1,10.2,14.8-3.6,8.7,2.4,8.8,11.8,0,14.7,7.2,28.4,15.8,39.9l3.5-6.7,3.9-2.3c24.4-3.1,57.4-19.8,81.2-20.2,15.8-.3,3.7,17.4-.6,23.6,0,1.1,1.1,1.5,3.1,1,3.5-.7,6.3-.8,9.6-3.2,4.9-3.6,15.1-22.9,13.5-28.5-2.1-7.9-26.8-7.5-33.3-5.1-3.6-5,13.9-23.3,17.9-26.6l-2.6,11.2c12.5-2.1,23.4-8.3,31.7-17.9l5.1-7.6c1.8,6.1-3.5,13.1-4.1,18s1.1,7.3,1.1,11.2c-.5,22.1-25.9,69.8-45,80.8-3.8,2.2-12.9,6.1-16.9,6.6s-2.1-.1-1.5-1.5,13.2-13.6,11.2-15.9c-13.4,8.7-27.7,20-44,21,1.5-1.4,13.7-13.4,12.3-14.8-17.1,3.8-36.3,6.8-52.1-2.6-3.6-8.9-7.3-17.6-11.8-26.1-3.3-6.2-10.1-14.6-12.1-20.6-3.1-9-3.5-22-3.8-31.5-1.7,1.3-3.5,2.7-5.1,4.1-1.2,1-1.5.3-1-2Z"/>
      <path class="st24" d="M950.6,434.8c3.2,2.6,19,2.7,24.8,8.4s1.3,13,2.7,15.2,4.9,2,6.5,3.2c10.5,7.9,3.7,9.4-1.3,17.1-2,3-4.1,6.3-5.8,9.5s-14.2,34-15.8,32.7c-11.6-24.9-47.5-30.2-68.9-14.1s-9.2,9.8-13.7,16.9-.7,2.8-2.3,1.3c-3.5-3.4-4.5-28.7-4.1-34.3.9-12.9,10.9-47.8,20.1-56.7,5.1-4.9,17.9-3.4,24.4-4.2s7.1-2.6,11.3-3c4.3-.4,14.7,0,18.3,2.1s2.7,4.7,4,5.7Z"/>
      <path class="st32" d="M950.3,299c.2-22.3,1.2-44.6,1.1-66.9.9-5.9,12.8-24.5,12.3-27.5s-10.1-4.2-9.1-8.1,9.2-17.1,10.2-18.5.9-1.7,2.4-1.7,31.8,20.1,32,22c-7.5,14.3-16.5,27.9-21.2,43.5-1.5,0-1.8-3.6-1.9-4.7-1.6-12.3-2-24.9-3.2-37.2-1.6-.7-1.3-3,0-4.1-.7-.9-1.4-.5-2,1,1.3,3,1.3,6.4,0,10.2-.3,18.6-.3,40.5-2.1,58.8s-5.4,22.9-6.2,34.7c-1.4,22.6,2,45.2,9.2,66.5,2.3,6.7,7.5,15.8,9,21.7,1.3,5.2,1,19.1,2.8,22.8s1.3,1.3,1.5,1c0-2.2-.1-4.4.1-6.5s.4-4.8,1.9-4.7l38.9,70.6c-.4.4-9.7-1.8-10.1-2.2s-1.9-8.5-5.3-12.6-10.7-7.3-11.1-7.9c-.6-1-.8-9.5-1.7-12.1-2.2-6.5-10.6-10.7-16.7-13s-17.7-1.7-18.6-10.1l-5.2-49.5c-.9,0-2,5.3-2,5.6v25.6c0,.2-1.6,1.8-2,1.5-21.1-45.8-25.5-95.7-10.2-144.2l5.1,60.3c1.8,1.8,1.2,4.9,0,7.2.6,1.9,1.2,1.2,2-2-1-6.3-1-12.8,0-19.4Z"/>
      <path class="st32" d="M802,838.1c.2-6.9.6-13.6,1.5-20.4,35.4-25,67.1-55,94.1-89l5.6,24.5,5.4-39.1,8.5-12,9.8,8.6,14.2,7.2c-25.5,37.2-56.5,70.2-90.5,99.7-1.9-4.5-2-9.6-3.1-14.3s0-3.3-1.5-3c-1.8,5.8-1.8,20.9-5.2,25-4.2,5.1-25.2,18.8-31.9,23.3-14.4,9.6-29.5,18.2-44.7,26.4,0-5.7-3.9-29.1-1-32.2l34.3-20.9c1.6,5.6,1.6,11.7,2.6,17.4.9.2,1.6-.1,2-1Z"/>
      <path class="st32" d="M471.6,821.7c3.7-4.1,3.5-11.6,5.1-16.9s-.4-2.2,1.5-1.5c2.9,1.1,14.6,11.4,18.6,14.1,18.9,13.1,38.7,25.1,59.4,35.2l4.4,24.3,4-18,1.6-1.4,61.8,23.7,2.2,30.5c-38.2-10.2-75.5-25.5-109.8-45.2-4.3-2.5-21.7-12.3-23.7-15.2-3.1-4.4-3-16.8-4.6-22.5-1.6,0-1.4,3.6-1.7,4.9-.7,3.7-1.5,7.6-1.4,11.4-1.3,1.4-10.8-6.1-12.6-7.3-16-11.3-31.6-24.6-45.7-38.2l29.4-9.6c.8-.3,1.5,0,2.3.3,5.6,2.5,7.3,25.1,9.3,31.2Z"/>
      <path class="st24" d="M853.1,495.4c-3.2,1.8-19.9,0-21.3-2.1-2.2-3.5,3.1-17.7,2.9-22.4-2.2,1.6-3.9,5.4-4.9,7.9-1.5,3.7-3.3,16-3.8,16.7-1.6,2.4-14.4-1.3-17.2-2.3-15.4-5.9-9.7-14.5-7.9-27.4-4.5,1.4-7,14.5-9.2,15.9-3.5,2.1-10.7-.5-14.3-1.6-.7-.9,8.6-15.1,9.7-17.4,7.3-14.2,11.4-27.4,12.8-43.4.3-3.9-2.2-10.6,2-12.3s14.2.6,19.5,3,4.2,3.4,4.5,3.4c1.3,0,4.6-4.9,12-3.7s12.7,7.2,17.1,8.4,5.5-.9,9.3,0,8.5,4.8,8,8-6.3,13.9-7.8,17.9c-5.9,16.4-11.1,33.8-11.6,51.3Z"/>
      <path class="st40" d="M485.9,371.6c1.7.6,2,1.8,0,2-6.1.6-13.6,4-17.8,4-10.5,0-32.8-6.1-44.6-8.1-2.3-.4-2.7,0-1,1,16,5.5,32.1,10.9,48.1,16.4l-10.2,2-10.9.8-93-20.9-1.4-2.4-2.5-1.3c-17-34-74.8-41.1-106.2-24.7l-2.7-.6-3.5,1.2c-17.7-4.4-35.4-8.9-53.1-13.3l-.7-2.3c1.4-2.3,1.6-6.5,5.6-6.2l55.8,6.2c.2-1.5-1.7-1.3-2.8-1.8-13.2-5.2-27.8-8.9-41.2-14.1l-1-1.5c1.8-.2,3.4-1.1,5.1-1.6,14.3-4,43.7,5.7,59.2,9.4,73.3,17.4,146,37.4,219.1,55.6Z"/>
      <path class="st65" d="M460.3,389l-15.8,3.9c-24.6-4.6-49.5-8-74.2-12.1-1.3.6-3.1,0-4.1-1-.4.3-.4.7,0,1,1.1-.5,2.7-.2,3.1,1l52.2,19.4c-3.8.9-6.9,3.5-10.8,4-21.6,2.9-43.3,1.8-64.9,0-3.1-.3-4.1,0-3.1,1l13.3,5.1c-8.7,1.7-17.2,5.1-25.9,6.1-39.2-10.1-82.7-15-121.4-26-8.3-2.3-16.6-6.4-22.5-12.8-.2-1.3,1.1-1.7,4.1-1,15.6,1.7,31.4,2.4,47.1,4.1,1.7-.4,3.4,0,5.1,1l3.4.5c17.1,14.9,40.6,20.3,62.9,20.1,20.1-.2,49-9.5,44.7-34.5l1.5-2.4,99,22.2,6.4.3Z"/>
      <path class="st32" d="M346.8,270.4c-.4,15-2.2,30-2.1,45-.2.2-5.8-.9-6-1.1-.8-1-1.7-21.8-2.3-25.8-4.7-32-19-61.4-34.4-89.3-.3-3,14.5-11.3,17.2-13.6,1.5,8.2,2,16.6,3.2,24.9.2,1.6.4,6.2,1.9,6.8l2-35.3c.2-2.4,7.6-6.6,9.1-5.5l11.3,22.3-9.9,6.7c18.7,35.5,31.7,75.3,29.4,116.1-2.6-2.2-10.4-2.1-12.3-3.6s-4.5-42.2-5.1-48.6c-1.6-.3-1.5-2.3,0-3.1-.7-.7-1.4-.7-2,0,1.6.8,1.4,3,0,4.1Z"/>
      <path class="st32" d="M706.9,886.1c.7-3.6,1.1-15.9,3-17.9s16.8-6.9,20.2-8.5c8.4-4,16.5-8.5,24.9-12.5l-2.2,33.6c-20,9.3-40.4,18.1-61.5,25-9.5,3.1-30.3,10.3-39.3,10.9-5.2.4-10.5-2.6-15.6-3.1l2-29.6c4.4.5,9.1,3.2,13.5,2.9,5.6-.4,18-4.9,24.1-6.7s25.8-9.5,26.8-8.5c.3,5.2,1.4,10.2,2,15.3.6.5,1.3.2,2-1Z"/>
      <path class="st62" d="M759,397.2c.6-6.5.4-10.5,6.1-14.3-11.9,2.8-21.8,12-30.2,20.4-1.6-3.5,1.2-9.9-2.5-12.3-.6,5.6-1.4,12.2-5.6,16.3-14-14.6-34.4-26.9-55.2-26.6l7.5,4.8c-.2,4.5.4,7.7,1.4,11.9s2,1.9-.7,1.7c-8.8-5.7-23.8-19.2-19.8-31,2.1-6.4,24.4.5,29.5,1.9,10.5,2.9,29.7,12,39.4,11.8s24.7-11.7,36.2-13.9c23.4-4.5-2.8,32.8-6.1,29.2Z"/>
      <path class="st23" d="M744.7,169.1c-1.1,1.9-5.3,2.7-7.4,3.3-3.6,1.1-14.5,4.7-17.5,4.5-6.3-.3-22.5-7-31.2-8.6-12.4-2.2-25.1-3.3-37.5-1.4s-2.6,0-3.6,1.5c3.6,2.5,7.8,4.8,10.2,8.7-10.2-.6-19.5-1.7-29.7.5-3,.6-11.4,4.4-12.7,4.3s-8.6-5.2-10.7-6.3c-7.1-3.6-14.2-7.2-21.5-10.2,0-.9,11.2-2.2,12.9-2.4,49.6-5.6,99.7-2.7,148.7,6Z"/>
      <path class="st24" d="M243.5,339.9v2.5c-5.8,5.4-9.8,13.2-9.4,21.4l-1.9,1.7-1.3,1.8c-17.7-3.6-35.4-7.2-53.1-10.8l-.8-2.3c0-3.6.6-6.7,1.1-10.2,8.8-.1,17.8.4,26.5,1,2.4.2,3-.2,2-1-3.8-1.5-23.9-6.4-25.1-8.1s3.6-8.4,4.7-10.3l57.3,14.3Z"/>
      <path class="st40" d="M550.4,344c1.1-.2,2-.7,3.1-1-.9,10.5,8.1,14.7,15.3,19.9-2.7,1.3-8.3-.4-10.2,2.5,10.2,3.1,21.2,8.5,27.6,17.4-2,7.2-.2,15.2-1.5,22.5-6.8-5.8-13.9-11.6-21.7-16.2s-21.4-9.5-22.3-10.4c-5-5.2-1.5-18.2,1.7-23.9s6.6-6.7,8-10.9Z"/>
      <path class="st33" d="M741.7,186.5c13.5-2.7,27-8.6,38.4-16.4,1.2,0,4.6,8.5,5.1,10.2,2.9,9.2,5.4,36.2,0,44-1.3,1.9-1.5.2-2.4-.7-7.1-7.6-12-16.2-20.6-23.4s-13.9-8.7-20.5-13.8Z"/>
      <path class="st32" d="M232.2,365.5c2.2.9,3.8,3,4.9,6.4,2.6,3.2,3.7,6.2,3.3,9,0,1.6-1.4,1.3-2,0-19.4-3.1-39.5-11.3-59.1-14.5-2.1-4-2.3-7.7-2.3-12.1l55.2,11.3Z"/>
      <path class="st70" d="M781.5,258.1c3.1,4,2.9,11.5,4.1,16.4-13.2-2.2-41,28.7-49.1,28.6,0-2,1.4-2.8,2.5-4.1,9-9.9,17.6-19.9,28.9-27.4,4-2.7,6.3-.6,5.2-6.6-1.1-5.7-5.5-11.6-9-16.1,2.3-1.8,15.5,6.8,17.4,9.2Z"/>
      <path class="st33" d="M786.6,336.9c-1.2.9-16.5-11.4-20.4-10.2,10.2-8,16.5-18.3,15.3-31.7,1.6-1.8,6.2,6.1,6.7,7.1,1.7,3.4,4.4,11.3,4.6,14.9.3,6.4-5.3,13.3-6.2,19.9Z"/>
      <path class="st70" d="M677.5,433.8c2.2,1.2,9.6,0,9,5.8s-2,4.4-2.2,4.5c-2.8,1.6-5.8-4-6.5-3.9s-2.2,4.7-5,4c-2.7-1-1.4-5.8-4.7-5-1.6,25.4-8.7,10.9-11.8-3.1s-4-18.5,8.4-11.5c2.8,1.6,3.1,3.9,4.4,4.8s6.8,3.5,8.4,4.3Z"/>
      <path class="st11" d="M1014.8,500.5c-2.4,4.5-3,10.6-4.9,15.1s.3,1.6-1.6,1.1c-4.3-1.2-8.7-5.8-14-5,0-6,2.7-11.2,5.1-16.4,1.6-.8,3.5-.5,5.8.8l9.2,2,.4,2.3Z"/>
      <path class="st0" d="M761.1,302.1c.2-.2.1-1.6,1.1-2.5s6.9-5.4,7.6-5.7c2.5-1,1.6,6.1,1.4,7.6-.9,6.3-6.9,16.6-13.2,18.6s-14.5-4.6-19.3-3.8l-1.2-4.9c8-2.7,6,1.8,9.6,4.2s13.5-2.1,11.8-6.2c4.1-1.1,4.8-3.5,2-7.2Z"/>
      <path class="st70" d="M999.4,495.4c.9-2,1.1-3.9,2.6-6.1,6.5-9.2,10.9-2.8,19.9-2.1l-7.2,13.3c-4.7-1.9-11.8-1.4-15.3-5.1Z"/>
      <path class="st27" d="M761.1,302.1c6.7,1.5,3.8,10.3-2,7.2-.2-.5-2.9-.9-1.9-4.4s3.5-2.3,4-2.8Z"/>
      <path class="st64" d="M950.3,318.5c-.4,2.2-1.1,2.9-2,2-.1-2.3,0-4.8,0-7.2s1-1.2,1.1-2.5c.3-3.8-1.1-8.9,1-11.8,0,6.5,0,13,0,19.4Z"/>
      <path class="st25" d="M972.8,199.8c0,1.2-1.4,5.8-2,7.2,0-3.4,0-6.8,0-10.2.5-1.8.8-2.8,2-1,0,1.3.1,2.8,0,4.1Z"/>
      <path class="st60" d="M404.1,639.6l-1-3.1c.5-1.9.2-6.3,2-7.2.8,3.8-.6,7.1-1,10.2Z"/>
      <path class="st4" d="M603.6,82.2c0,3.4,0,6.8,0,10.2-2.3-.5-1.7-2.5-2-4.1l2-6.1Z"/>
      <path class="st35" d="M744.7,637.6c-.3,2.4,1,6.2-2,7.2.7-1.9,0-3.6,0-5.1l2-2Z"/>
      <path class="st50" d="M350.9,733.7l-1,1c-1.7-.3-3.4-.7-5.1-1-.9-.3-.9-.6,0-1,2,.3,4.4-.7,6.1,1Z"/>
      <path class="st59" d="M802,838.1c0,2,0,4.1,0,6.1-1.8.2-1.7-3.3-2-5.1l2-1Z"/>
      <path class="st3" d="M847,545.5c.7,2.4,1.7,4.1,1,7.2-1.7.3-1.4-2.7-2-4.1l1-3.1Z"/>
      <path class="st64" d="M345.8,405.4l-3.1,1-4.1-1v-1c2.5-1.1,5.9.9,7.2,1Z"/>
      <path class="st1" d="M240.4,380.9c2.6-1.2,3.4-.5,2,2-1.9,1-4.2-.9-5.1-1l1-1c.6.1,1.4,0,2,0Z"/>
      <path class="st8" d="M190.3,377.8l-4.1,1c-.5-.6-2.1-.8-2-2,2.2-1,5.3.9,6.1,1Z"/>
      <path class="st19" d="M206.7,344c1.2.4,2.9.2,3.1,2-1.9.9-4.4-1-5.1-1l2-1Z"/>
      <path class="st57" d="M348.8,266.3c0,1,0,2.1,0,3.1l-2,1c0-1.4,0-2.7,0-4.1.3-2.7,1.3-2.6,2,0Z"/>
      <path class="st58" d="M413.3,256.1h-2c0-1.2-.5-5.1.5-5.1.9,1.3,1.2,3.5,1.5,5.1Z"/>
      <path class="st44" d="M423.5,369.6l-1,1c-1.3-.5-2.6-1.2-4.1-1v-1c2.1-1,4,.8,5.1,1Z"/>
      <path class="st17" d="M633.2,362.4c-.6.6-.8,2.1-2,2-.8-2.1.8-3.9,1-5.1l1,3.1Z"/>
      <path class="st49" d="M481.8,580.3c-.5,1.2-.5,2.8-1,4.1-.3.9-.6.9-1,0,.3-1.4.7-2.7,1-4.1h1Z"/>
      <path class="st56" d="M686.4,185.5l-3.1,1c-.5-.6-2.1-.8-2-2,2.1-.9,4,.8,5.1,1Z"/>
      <path class="st53" d="M706.9,886.1c-.3,1.5.2,3-1.5,4.1-1-.3-.4-2.1-.5-3.1l2-1Z"/>
      <path class="st39" d="M741.6,467.8c-.9.2-2.3,1.8-4.1,1-.6-1.9.8-1.7,1-2l3.1,1Z"/>
      <path class="st67" d="M611.7,418.7c-.6.5-.8,2.1-2,2-.8-1.7.9-3.3,1-4.1l1,2Z"/>
      <path class="st68" d="M370.3,380.9l-1,1c-.9-.6-2.1-.7-3.1-1-.9-.3-.9-.6,0-1,1.6.3,3.2.9,4.1,1Z"/>
      <path class="st55" d="M485.9,371.6c1.3,0,2.8.5,3.1,2-1,0-2.1,0-3.1,0v-2Z"/>
      <path class="st13" d="M489,323.6l-1,1c-.2-.5-2.5-2.7-2-3.1,2.2-.8,2.3,1.5,3.1,2Z"/>
      <path class="st5" d="M626.1,804.3c3.5,1.3,17.3-10.3,18.4-9.2,1.8,1.8-10.1,9.5-11.6,10.4-9.4,5.4-20.7,9-31.6,7.7-16.5-1.9-29.1-14-23.6-31.2,10.3-32.4,63-46.7,92.9-51.3.9.8,1.2.8,1.1,2.1-.4,3.6-5.6,16.3-7.3,20.4-8.5,19.8-21.2,38.1-38.3,51.2Z"/>
      <path class="st5" d="M656.7,566c-3.1-1-14.7,9.9-15.3,9.2,2.2-6,10-11.9,15.6-14.5,9.8-4.4,25.9-5.5,30.2,6.5-5.4,22.8-11,46.4-21.8,67.4s-38.1,42.9-35.3-3.6c1.4-23.8,9-48.2,26.6-65Z"/>
      <path class="st5" d="M359.1,594.6c3.8.6,15.5.7,5.6.1l-.5-1.2c-1.5-.5-5-.3-5.1-2h17.4c.9,22-5.1,51.2-18.2,69.3-8.7,12-22.9,20.5-29.9,1.8-8.2-21.8-3.7-51.6,7.2-71.7l23.5,3.6Z"/>
      <path class="st21" d="M370.3,570.1c-5.6-.6-30.7-3.7-28.5-12.6,1.3-5.2,12.8-2.2,16.5-.4s10.5,7.9,12,13Z"/>
      <path class="st14" d="M364.2,593.6c1.6.5,4.9.7,5.1,2-3.2-.4-7.8,1.2-10.2-1,1.6,0,4.2.6,5.1-1Z"/>
      <path class="st7" d="M480.8,584.4c-.4,1.2-.2,2.9-2,3.1-.6-1.6.8-2.4,1-3.1h1Z"/>
      <path class="st5" d="M524.6,137.3c-.6,1-11.1,3.6-13.1,2.7-2.8-1.3-10.4-14.2-13.1-17.6s-1.2-2.8-3.3-2.3c-.9.9,6.5,18.6,5,22.9s-9.4,4.7-11.7,2.8-9.4-37.7-12.5-43.9c-3.8-6,12.5-9,14.1-7.9,2.6,1.6,9.9,16.4,13.3,19.3s2.5,1.1,3.1.7c.9-.7-6.6-18.4-5.9-21.9s10.5-5.4,12.1-4.3,11,37.8,11.8,42.5,1.1,5.8.3,7.1Z"/>
      <path class="st5" d="M833.6,99.7c-1.1,5.9-12,47.2-14.2,48.5s-12.9-1.6-13.8-3.6l-2.6-25.6c-4,2.9-5.1,20.2-8.2,22s-10.7-.7-11.8-2.6,11.7-42,13-47.9c1.7-1.1,13.7,1.3,14.7,2.9s1.2,17.8,1.4,21.1c.5,6.1,1.7,5.5,3.7.5,4.3-11.4,1.2-23.3,17.8-15.3Z"/>
      <path class="st5" d="M680,72.2c8.9-1.5,24.4-.2,26.6,10.7,1.3,6.4.2,27-2.3,33-5.6,13.3-35.2,13.8-38.1-4.8-1.8-11.6-1.2-36.4,13.8-38.9Z"/>
      <path class="st5" d="M746.6,79.2c2.1,2.5-5.1,29.6-5.1,35.2s7.1,7.7,9,2.8c2.7-6.7,3.6-31,6.3-34.6s10.4,0,13.5,1.2c.8,3-4.2,34-5.7,38.2-5.8,16.9-36.8,11.5-38.3-2.7-.4-3.4.8-8.3,1.3-11.9,1.4-10.1,3.7-20.4,5.9-30.4l13.1,2.1Z"/>
      <path class="st5" d="M390.8,145.6c-.5-3.2-1.9-12-.5-14.3s10.5-5.7,12.8-5.1v23c0,1.4,18.7,15.7,21.2,18.2,4.5,5.1-7.7,7.7-11.3,9.8l-16-15.2c1.4,5.5,11.7,16.4,6.1,20.9-4.3,3.5-8.2,5.1-11.4.2-7.7-11.7-13.1-28.8-20.3-41.2,0-2.6,8.9-6.2,11.6-6.5,2.4.7,5.1,10.6,6.8,13.2,1-.2,1.3-1.2,1-3.1Z"/>
      <path class="st5" d="M472.5,152.6c-.3.5-10.9,4.1-11.5,4-2.6-.5-3.8-7.7-7.8-6.6-7.3,2-1.3,8.8-4,11.4s-12.4,5.2-13.3,4.5c0-7.3-9.2-48.6-6.7-52.2s14.6-7.1,16.5-4.1l25.9,36.5c.9,1.4,1.8,5.2,1,6.4Z"/>
      <path class="st5" d="M566.6,78.2c1.2.7,1.8,8.7.7,10.2-1.6,2.2-12.8.2-12.8,4.4,0,10.1,11.5.3,14.8,4.7s2.1,8.9.3,10.1-12-.3-11.9,3.5c.6,15.7,15.5-3.1,17.1,10.6.5,4,.6,6.2-3.7,7.3s-23,3.6-24.2,3.2l-7.7-49.4c.2-.9.8-1.2,1.6-1.5,2.8-1,24.1-4.1,25.7-3.1Z"/>
      <path class="st5" d="M911.3,131.4c1.4,2.3-4.4,14.7-4,18.3,3.6-1.8,8.7-12.3,12-13.2s12.1,4.5,12.4,5.1c.5.8.2,2.3,0,3.3-6.5,7.3-18.1,13.7-23.9,21.1-3,3.8-6,13.4-8.2,15.4s-10.5-3.5-13.9-4.7c-.5-2.8,8.2-14.3,9-19.6,1.6-9.5-.1-21.4,2.4-30.8,1.8-1.2,13.7,4.5,14.1,5.1Z"/>
      <path class="st5" d="M644.5,71.9c.4.4,1.1,10.1.9,10.6-1.1,3.4-10.5-1.4-12.1,9.4s0,15.5,2.4,17.8,8.7-.4,10.3,2,1.5,10.6-2.1,11.3c-10.5,1.9-21-.3-24.5-11.3-3.2-9.9-4.1-32.7,6.9-38.1s17.1-2.9,18.1-1.8Z"/>
      <path class="st5" d="M858.3,121.1c-.4-.6-6.8-.4-7.2-4.6s1.8-8.7,5.5-8.4,24.2,9,25.7,10c3.8,2.7.3,11.4-3.9,11.2s-4.5-1.9-5.3-1.8c-2.1.3-12.6,29.5-13.9,33.9-1.9,4.1-15.3-1.6-15-4.7,1.5-4.5,15.3-33.9,14.2-35.5Z"/>
      <path class="st9" d="M390.8,145.6c.1,1,1.9,3.1,1,5.1-1.2,0-1.5-1.3-2-2l1-3.1Z"/>
      <path class="st5" d="M815,564.1c4.1-.8,16.3,4.4,16.5,8.4-5.4,21.9-8.8,48.1-20.2,67.8s-28.5,35.9-30.9,6c-1.7-22,10.6-64.9,28.7-78.8s4-3,5.9-3.4Z"/>
      <path class="st5" d="M1053.6,648.8c3.4-3.4-11.4-3.2-12.8-3.1-3.1.3-5.8,2.5-8.7,1.5,10.1-16.5,17.9-34.4,24-52.7,6.5,13.3,11.9,28.2,14.5,42.7s5.3,28.3-4.8,35.5c-14.6,10.4-27-8.1-17.9-21s5.3-2.9,5.6-3.1Z"/>
      <path class="st43" d="M344.8,732.7v1c-2.3-.5-5.1-.5-7.2-1.5,2.2-1.8,5.3.3,7.2.5Z"/>
      <path class="st5" d="M683.3,294.9c7.9-1.3-2.6-16.8-5.6-20.5s-6.4-6.4-9.7-9.2c-.3-1.3,1.1-1.7,4.1-1,7.8,1,13.2.6,18.2,7.8,5.3,7.6,12.1,26.5,2.8,33.1s-9.4,1.3-6.5,6,20.6,2.2,20.3,10.4c-19.8-2.1-38.8.8-56.9,9-6.8,3.1-12.6,8-19.8,10.4l8.2-11.2c-8.7-.3-16.1,5.2-24.6,6.1,4.5-6,11-10.1,17.4-13.8-21.8-12.9-28.7-38.1-19.7-61.4-.4-3.8-16.2-7.2-15-8.7,1.8.4,3.3-1.8,4.1-2.1,9.1-8.1,22.9,0,30.7,7l18.4,18.5c9.6,8.8,20.9,16.5,33.7,19.5Z"/>
      <path class="st5" d="M533,178.3c10.7,1.7,16.7,4.1,25.1,11.2,10.2,8.7,21.4,24.3,21.5,37.9-7.3-5.4-8.6-3.8-14.3,2-11.9,12.1-20,27.4-26.1,43-1.1,2.2-1.5,1-2-1-.3-7,.4-14.6,2-21.5-1.5-8.9,5.5-19.5,10.6-26.8s2-2.6,3.1-3.8c11.1-4.8,0-18.9-5.1-25s-9.4-10.3-15.9-12.6l-.9-2.3c-.9-1-.2-1.3,2-1Z"/>
      <path class="st40" d="M530.9,179.3c10.5,2.3,21,15.6,25.7,24.9,6.9,13.5,3,9.3-4.2,18.6s-11.2,18.6-13.3,27.1c-7-13.9-11.5-30.7-12.8-46l11.8,8.2c-1.1-12.1-4.9-22.1-10.2-32.7.3-1.7,2.6-1.5,3.1,0Z"/>
      <path class="st40" d="M600.5,249.9c-2.2-.6,1.2-2.6,1.7-2.9,15.8-10.7,34.6-14.7,53.5-11.4l-12.8,7.2c-10.9,8.1-2.2,10.2,4.1,17.4,11,12.5,20.4,27.9,36.3,34.8-10.5,1.7-25.1-9.2-32.7-15.8-13.8-11.9-28.4-36.4-50.1-29.2Z"/>
      <path class="st38" d="M715.1,313.3c-.3.9-.6.9-1,0,2.5-19.5,2.4-41.7-8.2-58.8,3.7-1.8,9.2,7.6,10.8,10.7,8.2,16.3,4.6,32-1.6,48.1Z"/>
      <path class="st48" d="M533,178.3l-2,1c-.9-.2-2.1.1-3.1,0-.1-.3-1.6-.1-1-2,2.4-1,4.7.8,6.1,1Z"/>
      <path class="st16" d="M672.1,264.2l-4.1,1c-.6-.5-2.1-.8-2-2,2.3-1,4.8.9,6.1,1Z"/>
      <path class="st30" d="M715.1,313.3c-.4,1.1-1,4.1-1.5,4.1-1.9-1,.4-3.5.5-4.1h1Z"/>
      <path class="st31" d="M539.1,272.4c-.3.7-1.5,4.2-2,3.1,0-1.4,0-2.7,0-4.1l2,1Z"/>
      <path class="st51" d="M950.3,318.5c0,3.1,0,6.1,0,9.2-1.6-.7-2-5.6-2-7.2l2-2Z"/>
      <path class="st63" d="M972.8,195.7l-2,1c0-2,0-4.1,0-6.1,1.6-.2,1.9,3.4,2,5.1Z"/>
      <path class="st5" d="M355,366.5c5.9,22.2-14.3,34.3-33.4,37.7s-60.8-2.6-79.1-21.3c-.6-.6-1.6-1.6-2-2-2.5-2.9-7.6-11.8-8.2-15.3-1.4-9.2,4-20.1,11.3-25.6,26.8-20.1,102.2-8.5,111.5,26.6Z"/>
      <path class="st42" d="M366.2,379.8v1c-1-.3-4.1-.7-4.1-1.5,1.1-1.8,3.5.4,4.1.5Z"/>
      <path class="st29" d="M348.8,266.3h-2c0-1.2-.4-5.1.5-5.1,1.3,1.2,1.4,3.5,1.5,5.1Z"/>
      <path class="st0" d="M682.6,111.6c-1-1-1.4-3.9-1.4-5.4,0-3.9.7-13.6,1.4-17.1s4.9-7.4,7.9-3.2c1.5,2.2.4,17.8-.2,21.2s-4,8.3-7.7,4.6Z"/>
      <path class="st66" d="M450.1,139.4c-.3.4-5.7,1.4-6.1,1.1l-3.1-15.3c2.2-.5,2.3,1.2,3.3,2.3,1.4,1.7,7.1,10.3,5.9,12Z"/>
      <path class="st20" d="M631.2,285.7l.8,1.1c-3.8,4.3-3.6,6.7.5,7.2l1.8,1.9c-2,2.1-3.3,1.3-.9,5.5,6.6,11.5,16.8,8.8,21.8-2.3,3.8,1.9,7.5,4.7,11.8,5-3.2,13.3-19,14.9-29.7,9.7-16.7-8-20-28.3-14.3-44.5,4.6,3.9,11.6,9.9,8.2,16.4Z"/>
      <path class="st26" d="M634.2,296c-5.4,1.1-8.8-2.6-6-7.6s2.8-2.4,2.9-2.7c4.9,0,7.4,2.5,5.9,7.5s-2.1,1.9-2.9,2.8Z"/>
      <path class="st40" d="M287.5,335.8c2.4.2,4.1.8,5.1,2-3.9,2-5.6,4.6-5.3,7.6-20.4,4.8-11.2,14.2,5.1,9.6l2.8,2.3c5.1-1.1,9.1,0,13.7,2,0-1.2-.4-2.2-1-3.1l-1.2-.8c-5,2.9-8.4,3.3-8.3-3.4-3.8,3.2-14.6,6.2-17.8,2-6-7.7,6.7-8.8,10.7-7.6l1.3-.5c.4-2,2.8-3,7.2-3.1.7-1.8.7-3.5,0-5.1h1c10,1.9,17.6,3.7,26.6,8.7,14.9,8.1,32.7,25.5,15.9,41.5-22.3,21-86.6,10.6-101.6-16.1-15.9-28.2,26.4-36.8,45.9-36.1Z"/>
      <path class="st12" d="M300.8,337.9h-1c-.2.9-.5.9-1,0-2.5.7-4.5.7-6.1,0l-5.1-2c4.8.2,8.7,1.2,13.3,2Z"/>
      <path class="st45" d="M302.5,362.7c6.9-.6,10.8,5,9.5,11.5-.5,2.3-2.6,3.1-2.9,4.2-.6,2.8,3.8,5.3,0,12.3-6.2,11.6-23.5,3.9-16-9.8s3.2-2.7,3.2-3.6-1.7-2.5-1.8-4.2c-.3-4.4,3.2-10,7.9-10.5Z"/>
      <path class="st37" d="M286.2,391.8c-7.1,5.8-17.9-3-14.6-13.1s2.4-.9,2.6-9.7c.2-14.4,21.6-11.5,17,2.7s-3.3,3.7-3.4,4.5,1.5,2.6,1.7,4.2c.4,3.5-.5,9.1-3.3,11.4Z"/>
      <path class="st45" d="M315.5,381.2c.2-.3,1.6-.3,1.7-1,.2-2-1.6-4.6-1-8,1.5-9.7,19-6.7,17.2,2.7s-3.8,4.8-3.8,5.3c0,.9,3,2.2,2.5,5.7-1.9,13.5-27.5,14.6-16.5-4.8Z"/>
      <path class="st46" d="M292.6,337.9c1.8-.3,4.2.2,6.1,0-1,1.2-3.1,1.9-6.1,2-1.9,2.2-1.9,4.2,0,6.1,0,0,.4,1.8-.7,2.1s-13.6-2.7-10.1,4c3.5,6.8,14.7-.9,18.5-4.1l.5,8.2,9.2-5.1-2-2c4,.8,5.8-2.4,9.2-3.1.8,1.7-2.5,3.5-2,4.1s2.4-.8,2,1c-3-1.2-8.7,2.3-9.2,5.1,1.9,0,2.5,1.8,1,3.1-4.5,2.4-5.4-.3-7.8-.7s-3.7,1.1-5.9.8-3-3-5.1-3.1-11.4,4.9-15-.7c-6.3-9.8,9-9.8,10.1-10.7s.2-5.6,7.3-7Z"/>
      <path class="st2" d="M269.1,357.3c-1.8,3.6-4.6,29.4-6.6,29.6-10.1-2.1-1.3-13.2-2.6-20.4l-6.1,2c-1.4-7.6,3.9-6.1,7.7-9.2,2.8-2.2.2-4.5,7.6-2.1Z"/>
      <path class="st49" d="M292.6,346.1c-6.6-3.4,4-9.1,6.1-3.1.3-.9.6-.9,1,0-3.7,4.1-5.7,2.2-7.2,3.1Z"/>
      <path class="st34" d="M313,362.4c-1.7-1.8,2.7-6.7,5.1-2.6-.7,1.4-4.1,3.6-5.1,2.6Z"/>
      <path class="st47" d="M299.7,343h-1c-2.1-2.4-2.8-2.6-6.1-3.1,1.7-1,4.2-1.6,6.1-2s.7,0,1,0c3,3.6,2.1,2.8,0,5.1Z"/>
      <path class="st52" d="M307.9,356.3c3.9-.6,4.4,1.3,1,3.1-.5-.8-1.2-2.2-1-3.1Z"/>
      <path class="st6" d="M302.7,389.9c-.9.5-2.7,0-3.9.2,0-3.6-.8-7,2.6-9.2,4-.3,2.5,8.4,1.4,9Z"/>
      <path class="st41" d="M303.3,368.6c3.5-.9,3.9,8.6-1,7.1s-.9-6,1-7.1Z"/>
      <path class="st15" d="M282.3,377.8c1.7,4,1.3,9.7-4.1,9.2-1.7-4-1.3-9.7,4.1-9.2Z"/>
      <path class="st18" d="M281.8,365.5c4.5-1.4,4.2,5.2,1,7.1-3.1.7-3.6-6.4-1-7.1Z"/>
      <path class="st36" d="M321.8,383c6.2,0,3.2,6-.1,8.1-3.5-2.3-3.1-5.6.1-8.1Z"/>
      <path class="st6" d="M326.3,371.6c1.3,1.8,0,6.7-2.5,6.1s-2.1-7.7,2.5-6.1Z"/>
      <path class="st54" d="M292.6,339.9c2.1-.4,4.9.3,7.2,0l-1,3.1c-2.9,0-3.7.7-2-2-6.7-.6-3.8,4.8-4.1,5.1-.6.5-3.8-1.4-5.1-1,.8-2.3,2.7-4.6,5.1-5.1Z"/>
      <path class="st69" d="M294.6,357.3c.8-3.3-1.1-4,3.1-5.1l-3.1,5.1Z"/>
    </g>
  </g>
</svg>