<?xml version="1.0" encoding="utf-8"?>
<!-- Generator: Adobe Illustrator 27.2.0, SVG Export Plug-In . SVG Version: 6.00 Build 0)  -->
<svg version="1.1" id="Layer_1" xmlns="http://www.w3.org/2000/svg" xmlns:xlink="http://www.w3.org/1999/xlink" x="0px" y="0px"
	 width="296.9" height="89.9" viewBox="0 0 296.9 89.9" style="enable-background:new 0 0 296.9 89.9;" xml:space="preserve">
<style type="text/css">
	.st0{fill:#FFFFFF;}
</style>
<g>
	<polygon class="st0" points="282.2,60.7 283,60.7 283,64.5 283.6,64.5 283.6,60.7 284.3,60.7 284.3,60.1 282.2,60.1 	"/>
	<polygon class="st0" points="286.1,62.4 286.1,62.4 285.3,60.1 284.7,60.1 284.7,64.5 285.3,64.5 285.3,61.8 285.3,61.8 
		285.9,63.7 286.3,63.7 286.9,61.8 286.9,61.8 286.9,64.5 287.5,64.5 287.5,60.1 286.9,60.1 	"/>
	<path class="st0" d="M31.4,41h-0.1c-1.4-9.9-2.8-20.1-4.2-30.6c-1.4,0-2.8,0-4.2,0c-1.5,10.5-3,21.2-4.4,32.2h-0.1
		c-0.9-10.5-1.7-21.3-2.6-32.2c-1.9,0-3.9,0-5.8,0c1.9,17.7,3.8,34.9,5.6,51.5c1.7-0.5,3.4-1,5.1-1.5c1.4-11.2,2.8-22.2,4.3-32.9
		h0.1C26.4,37.9,27.7,48.1,29,58c1.7-0.5,3.4-0.9,5.1-1.4c2-15.9,4.1-31.3,6.2-46.3c-1.9,0-3.9,0-5.8,0C33.3,20.4,32.3,30.6,31.4,41
		"/>
	<path class="st0" d="M64.2,22c0.1-7.6-3-11.6-9.5-11.6c-2.9,0-5.9,0-8.8,0c-0.2,14.5-0.4,29-0.6,43.5c1.8-0.4,3.6-0.8,5.5-1.2
		c0.1-6,0.2-12,0.3-18.1c1.1-0.1,2.2-0.3,3.3-0.4c1.6,5.7,3.2,11.3,4.8,16.7c1.9-0.4,3.9-0.8,5.8-1.1c-1.9-5.6-3.7-11.4-5.6-17.4
		C62.9,29.9,64.2,26.5,64.2,22 M54.2,28.9c-1,0.1-2.1,0.2-3.1,0.3L51.3,16c0.9,0,1.9-0.1,2.9-0.1c4-0.1,4.6,2.1,4.6,6.2
		C58.7,26.2,58,28.6,54.2,28.9"/>
	<path class="st0" d="M70.7,48.7c1.8-0.3,3.7-0.6,5.5-0.9c0.2-12.5,0.4-25,0.6-37.5c-1.8,0-3.7,0-5.5,0
		C71.1,23.1,70.9,35.9,70.7,48.7"/>
	<path class="st0" d="M92.5,10c-4.5,0-9.3,2.9-9.4,8.9c-0.1,6.4-0.2,12.9-0.3,19.3c-0.1,6,4.6,8.3,9.1,7.7s9.3-3.9,9.4-9.4
		c0.1-3.6,0.1-7.2,0.2-10.8c-3.3,0.2-6.6,0.3-9.9,0.5c0,1.5,0,3-0.1,4.5c1.5-0.1,2.9-0.2,4.4-0.3c0,2.2-0.1,4.4-0.1,6.6
		c0,2.4-1.8,3.7-3.8,3.9s-3.7-0.7-3.7-3.2c0.1-6.3,0.2-12.6,0.3-18.9c0-2.5,1.8-3.7,3.8-3.7s3.7,1.1,3.7,3.5c0,0.6,0,1.2,0,1.8
		c1.8-0.1,3.7-0.1,5.5-0.2c0-0.6,0-1.2,0-1.7C101.7,12.8,97,10,92.5,10"/>
	<path class="st0" d="M113.2,10.3c-1.8,0-3.7,0-5.5,0c-0.1,11.2-0.3,22.5-0.4,33.7c5.5-0.5,11-0.9,16.5-1.1c0-1.6,0-3.1,0-4.7
		c-3.7,0.2-7.3,0.4-11,0.6C112.9,29.3,113.1,19.8,113.2,10.3"/>
	<path class="st0" d="M128.7,42.6c5.5-0.2,11-0.3,16.6-0.3c0-1.5,0-3.1,0-4.6c-3.7,0-7.3,0.1-11,0.1c0-3.2,0-6.3,0-9.4
		c3.2,0,6.4-0.1,9.5-0.1c0-1.4,0-2.9,0-4.3c-3.2,0-6.4,0-9.5,0.1c0-3.2,0-6.3,0-9.4c3.6,0,7.3,0,10.9,0v-4.3c-5.5,0-10.9,0-16.4,0
		C128.9,21.1,128.8,31.8,128.7,42.6"/>
	<path class="st0" d="M164.8,10.3c-1.4,4.3-2.9,8.6-4.3,12.8h-0.1c-1.5-4.3-3-8.6-4.5-12.8H150c2.5,6.2,5.1,12.3,7.6,18.6
		c0,4.5,0,9.1,0.1,13.6c1.9,0,3.7,0.1,5.6,0.2L163.2,29c2.5-6.2,5-12.4,7.4-18.7C168.6,10.3,166.7,10.3,164.8,10.3"/>
	<path class="st0" d="M202.9,10.3c-5.5,0-10.9,0-16.4,0c0.2,11.3,0.3,22.6,0.5,33.9c1.8,0.2,3.7,0.4,5.5,0.5
		c-0.1-4.9-0.1-9.8-0.2-14.7c3.2,0.2,6.3,0.4,9.5,0.6c0-1.6-0.1-3.2-0.1-4.8c-3.2-0.2-6.3-0.3-9.5-0.5c-0.1-3.5-0.1-7-0.2-10.5
		c3.6,0.1,7.3,0.1,10.9,0.2C203,13.5,203,11.9,202.9,10.3"/>
	<path class="st0" d="M208.8,10.3c0.2,12.2,0.4,24.4,0.6,36.5c1.8,0.3,3.7,0.5,5.5,0.8c-0.2-12.5-0.4-24.9-0.6-37.4
		C212.5,10.3,210.6,10.3,208.8,10.3"/>
	<path class="st0" d="M227.1,44.1c-0.1-3.9-0.1-7.7-0.2-11.6c3.2,0.3,6.3,0.7,9.5,1.1c0-1.9-0.1-3.7-0.1-5.6
		c-3.2-0.3-6.3-0.6-9.5-0.8c-0.1-3.9-0.1-7.7-0.2-11.6c3.6,0.1,7.2,0.2,10.9,0.3l-0.1-5.6c-5.5,0-10.9,0-16.4,0
		c0.2,12.8,0.4,25.6,0.6,38.5c5.5,0.9,10.9,2,16.3,3.1c0-2-0.1-4-0.1-6C234.3,45.3,230.7,44.7,227.1,44.1"/>
	<path class="st0" d="M249.2,48.1l-0.5-37.8c-1.8,0-3.7,0-5.5,0c0.2,14.3,0.4,28.5,0.6,42.8c5.4,1.2,10.8,2.5,16.2,4
		c0-2.2,0-4.5-0.1-6.7C256.3,49.6,252.8,48.9,249.2,48.1"/>
	<path class="st0" d="M272.6,10.4c-2.7,0-5.4,0-8.1,0c0.1,16,0.2,32,0.4,48.1c2.5,0.7,5,1.4,7.5,2.2c6.3,1.9,9.9-1.6,9.9-11.5v-25
		C282.2,15.5,278.8,10.4,272.6,10.4 M272.7,53.9c-0.8-0.2-1.7-0.4-2.5-0.6c-0.1-12.1-0.1-24.1-0.2-36.2c0.8,0,1.7,0.1,2.5,0.1
		c3.2,0.1,4.2,2.5,4.3,6.6c0,8.3,0,16.6,0.1,24.8C276.8,53,275.7,54.7,272.7,53.9"/>
	<g>
		<path class="st0" d="M233.7,65.9h-21.1c-0.2-5.1-5.4-6.9-10.3-6.9h-20.8v2.1h20.8c1.9,0,8.2,0.4,8.2,5.1c0,1.4-0.4,2.5-1.1,3.2
			c-1,1-2.4,1.1-3.2,1.1c-0.3,0-3.7-0.2-3.7-2.6c0-0.1,0-0.1,0.1-0.2c0,0,0.5,1,1.7,1c1.1,0,1.9-0.9,1.9-1.9c0-0.9-0.6-1.7-1.5-2
			c-0.8-0.2-1.5-0.1-2.3,0.2c-0.4,0.2-0.8,0.5-1.1,0.8h-19.8v2.1h18.9c0,0.5,0.1,0.9,0.1,0.9c0.7,2.8,3.9,3.8,5.6,3.8
			c1.9,0,3.6-0.6,4.8-1.7c0.8-0.8,1.3-1.8,1.5-2.9h17h4.3c1.9,0,8.2,0.4,8.2,5.1c0,1.4-0.4,2.5-1.1,3.2c-1,1-2.4,1.1-3.2,1.1
			c-0.3,0-3.7-0.2-3.7-2.6c0-0.1,0-0.1,0.1-0.2c0,0,0.5,1,1.7,1c1.1,0,1.9-0.9,1.9-1.9c0-0.9-0.6-1.7-1.5-2
			c-0.8-0.2-1.5-0.1-2.3,0.2c-0.8,0.4-1.4,1-1.7,1.7h-50.6v2.1H232c0.7,2.8,3.9,3.8,5.6,3.8c1.9,0,3.6-0.6,4.8-1.7
			c1.1-1.1,1.7-2.7,1.7-4.8C244.1,67.8,238.7,65.9,233.7,65.9z"/>
		<path class="st0" d="M117.6,73.8h-0.8H64.4c-0.3-0.7-0.9-1.3-1.7-1.7c-0.8-0.3-1.5-0.4-2.3-0.2c-0.9,0.2-1.5,1-1.5,2
			c0,1.1,0.9,1.9,1.9,1.9c1.1,0,1.7-1,1.7-1c0.1,0.1,0.1,0.1,0.1,0.2c0,2.4-3.3,2.6-3.7,2.6c-0.8,0-2.2-0.1-3.2-1.1
			c-0.7-0.7-1.1-1.8-1.1-3.2c0-4.7,6.3-5.1,8.2-5.1h4.3h17c0.3,1.2,0.8,2.2,1.5,2.9c1.1,1.1,2.8,1.7,4.8,1.7c1.7,0,5-1,5.6-3.8
			c0,0,0.1-0.4,0.1-0.9h20.7h0.8V66h-0.8H95.2c-0.3-0.3-0.7-0.6-1.1-0.8c-0.8-0.3-1.5-0.4-2.3-0.2c-0.9,0.2-1.5,1-1.5,2
			c0,1.1,0.9,1.9,1.9,1.9c1.1,0,1.7-1,1.7-1c0.1-0.1,0.1,0,0.1,0.1c0,2.4-3.3,2.6-3.7,2.6c-0.8,0-2.2-0.1-3.2-1.1
			c-0.7-0.7-1.1-1.8-1.1-3.2c0-4.7,6.3-5.1,8.2-5.1h22.5h0.8V59h-0.8H94.2c-4.9,0-10.1,1.8-10.3,6.9H62.8c-5,0-10.3,1.9-10.3,7.2
			c0,2,0.6,3.6,1.7,4.8c1.1,1.1,2.8,1.7,4.8,1.7c1.7,0,5-1,5.6-3.8h52.2h0.8C117.6,75.8,117.6,73.8,117.6,73.8z"/>
	</g>
	<g>
		<path class="st0" d="M125.5,66.4h3.6v2.4h-3.6v4.9h4.6v2.4h-7.2V59.3h7.2v2.4h-4.6C125.5,61.7,125.5,66.4,125.5,66.4z"/>
		<path class="st0" d="M135.7,73l2-13.7h2.4l-2.6,16.8h-3.9L131,59.3h2.7L135.7,73z"/>
		<path class="st0" d="M144,66.4h3.6v2.4H144v4.9h4.6v2.4h-7.2V59.3h7.2v2.4H144V66.4z"/>
		<path class="st0" d="M152.6,64v12.2h-2.4V59.3h3.3l2.7,10.1V59.3h2.4v16.8h-2.7L152.6,64z"/>
		<path class="st0" d="M159.7,59.3h8.2v2.4h-2.8v14.4h-2.6V61.7h-2.8L159.7,59.3L159.7,59.3z"/>
		<path class="st0" d="M172.6,59.1c2.6,0,3.9,1.5,3.9,4.2v0.5H174v-0.7c0-1.2-0.5-1.7-1.3-1.7s-1.3,0.5-1.3,1.7
			c0,3.5,5.2,4.1,5.2,8.9c0,2.7-1.3,4.2-3.9,4.2c-2.6,0-3.9-1.5-3.9-4.2v-1h2.5v1.2c0,1.2,0.5,1.6,1.4,1.6c0.8,0,1.4-0.4,1.4-1.6
			c0-3.5-5.2-4.1-5.2-8.9C168.7,60.7,170,59.1,172.6,59.1z"/>
	</g>
</g>
</svg>
